<?xml version="1.0" encoding="UTF-8" standalone="no"?>
<!-- Created with Inkscape (http://www.inkscape.org/) -->

<svg
   width="80.027504mm"
   height="90.783333mm"
   viewBox="0 0 77.610556 88.041547"
   version="1.1"
   id="svg1"
   xml:space="preserve"
   xmlns:xlink="http://www.w3.org/1999/xlink"
   xmlns="http://www.w3.org/2000/svg"
   xmlns:svg="http://www.w3.org/2000/svg"
   xmlns:i="http://ns.adobe.com/AdobeIllustrator/10.0/"><defs
     id="defs1"><color-profile
       name="Agfa-:-Swop-Standard"
       xlink:href="../../../../../WINDOWS/system32/spool/drivers/color/RSWOP.icm"
       id="color-profile1" /></defs><g
     id="layer1"
     transform="translate(-55.721521,-53.898646)"><g
       style="overflow:visible"
       id="g1"
       transform="matrix(0.26458333,0,0,0.26458333,47.196138,52.870856)"><g
         id="Layer_1"
         i:knockout="Off"
         i:rgbTrio="#4F008000FFFF"
         i:layer="yes"
         i:dimmedPercent="50"
         transform="matrix(1.2136819,0,0,1.2236319,-62.535344,-30.98895)"><path
           d="m 286.33,53.5 c 0,13.807 -11.864,25 -26.5,25 -14.636,0 -26.5,-11.193 -26.5,-25 0,-13.807 11.864,-25 26.5,-25 14.636,0 26.5,11.193 26.5,25 z"
           i:knockout="Off"
           id="path2"
           style="fill:#6c6753" /><path
           d="m 151.33,82.5 139,-1 c -0.6,3.421 33.633,57.497 29,67 -4.089,0.418 -67,5 -67,5 6.109,-9.379 -13,-43 -13,-43 z"
           i:knockout="Off"
           id="path5"
           style="fill:#6c6753" /><path
           d="m 318.33,156.5 -66,-3 c 0,0 -23.565,143.36 -24,145 -0.435,1.64 1.855,2.536 3,1 1.145,-1.536 51,-82 51,-82 0,0 19.754,80.701 20,82 0.246,1.299 3.721,1.209 4,0 0.279,-1.209 12,-143 12,-143 z"
           i:knockout="Off"
           id="path6"
           style="fill:#6c6753" /><g
           style="clip-rule:evenodd;fill-rule:evenodd;image-rendering:optimizeQuality;shape-rendering:geometricPrecision;text-rendering:geometricPrecision"
           id="g2"
           transform="matrix(0.33872183,0,0,0.34139318,78.074218,122.31697)"><path
             fill="#424242"
             fill-rule="nonzero"
             d="M 2.907,144.733 28.09,133.439 C 58.416,84.197 97.9,48.953 144.021,28.268 190.651,7.355 244.012,1.349 301.482,10.816 L 325.592,0 343.917,40.858 18.325,186.893 0,146.035 Z"
             id="path1-0" /><path
             fill="#ffffff"
             d="m 132.378,74.527 51.766,-23.219 a 3.403,3.403 0 0 1 4.486,1.704 l 6.816,15.198 a 3.398,3.398 0 0 1 -1.706,4.481 l -51.77,23.22 a 3.404,3.404 0 0 1 -4.482,-1.706 l -6.814,-15.193 a 3.41,3.41 0 0 1 1.708,-4.487 z"
             id="path2-9" /><path
             fill="#373735"
             d="m 18.895,408.957 h 23.856 c 3.611,0 6.566,2.962 6.566,6.568 v 28.148 h 22.761 l 3.442,23.835 H 49.317 v 28.152 c 0,3.604 -2.962,6.566 -6.566,6.566 H 18.895 c -3.604,0 -6.566,-2.955 -6.566,-6.566 v -80.135 c 0,-3.613 2.954,-6.568 6.566,-6.568 z m 299.355,34.716 h 22.765 v -28.148 c 0,-3.613 2.955,-6.568 6.566,-6.568 h 23.854 c 3.614,0 6.569,2.96 6.569,6.568 v 80.135 c 0,3.608 -2.96,6.566 -6.569,6.566 h -23.854 c -3.608,0 -6.566,-2.955 -6.566,-6.566 v -28.152 h -26.208 z"
             id="path3" /><path
             fill="#0099ce"
             fill-rule="nonzero"
             d="M 279.271,512.475 H 111.059 c -9.104,0 -16.787,-3.611 -22.602,-9.427 v -0.031 C 82.484,497.042 78.581,488.718 77.284,479.728 L 34.53,183.605 h 321.272 l -42.758,296.123 c -1.302,9.029 -5.203,17.36 -11.166,23.323 -5.816,5.816 -13.499,9.424 -22.607,9.424 z"
             id="path4-4" /><path
             fill="#ffffff"
             d="m 195.164,236.393 c 51.977,0 94.118,42.138 94.118,94.115 0,51.98 -42.141,94.119 -94.118,94.119 -51.98,0 -94.118,-42.139 -94.118,-94.119 0,-51.977 42.138,-94.115 94.118,-94.115 z"
             id="path5-8" /><path
             fill="#018100"
             d="m 184.253,270.387 26.578,-0.089 c 4.806,0 8.076,0.853 11.228,4.955 l 7.502,13.398 7.61,-4.697 -13.11,22.942 -26.499,-0.1 8.066,-4.697 -13.616,-23.11 a 24.976,24.976 0 0 0 -4.103,-5.718 22.412,22.412 0 0 0 -3.656,-2.883 z m 6.411,111.159 h -25.497 c -5.639,-0.872 -9.256,-3.964 -10.336,-8.186 -0.922,-3.676 0,-5.37 1.585,-8.532 1.913,-3.776 4.162,-7.423 6.323,-11.099 l 28.233,0.099 -0.308,27.669 z m -40.63,-9.91 -13.348,-22.99 c -2.408,-4.152 -3.31,-7.423 -1.298,-12.229 l 7.858,-13.2 -7.868,-4.232 26.38,-0.128 13.15,23.03 -8.116,-4.667 -13.17,23.377 a 24.758,24.758 0 0 0 -2.973,6.43 22.177,22.177 0 0 0 -0.634,4.59 z m 92.072,-60.053 12.794,22.05 c 2.081,5.301 1.268,9.998 -1.903,13.021 -2.715,2.646 -4.647,2.705 -8.185,2.903 -4.222,0.228 -8.503,0.1 -12.774,0.07 l -14.032,-24.498 24.12,-13.566 z m 11.704,40.135 -13.21,23.06 c -2.388,4.172 -4.777,6.58 -9.91,7.235 l -15.36,-0.209 0.268,8.919 -13.279,-22.792 13.328,-22.912 v 9.364 l 26.836,-0.267 a 24.786,24.786 0 0 0 7.036,-0.674 22.033,22.033 0 0 0 4.291,-1.745 z m -98.464,-51.125 12.704,-22.099 c 3.568,-4.459 8.027,-6.055 12.249,-4.866 3.647,1.041 4.667,2.676 6.61,5.639 2.309,3.538 4.341,7.313 6.451,11.029 l -14.211,24.399 -23.783,-14.102 z"
             id="path6-8" /><path
             d="m 68.137,174.849 h 283.714 c -1.773,-16.857 -5.915,-34.95 -16.76,-44.367 l -6.457,19.837 -0.246,-0.147 1.657,-23.202 -7.114,-4.173 -23.885,9.892 19.365,-11.805 c -23.962,-4.977 -65.054,11.011 -84.054,23.294 -5.555,3.596 -10.25,6.568 -14.396,9.263 l -18.06,0.422 c -5.369,-5.285 -12.056,-8.108 -19.187,-9.147 -14.595,-2.132 -31.061,3.184 -41.908,10.054 -23.864,-8.317 -58.088,18.791 -72.669,20.079 z M 328.093,90.693 c 2.244,-10.831 4.815,-21.565 7.963,-32.227 14.273,-4.438 47.081,16.514 51.944,30.273 l -21.423,16.123 c 8.508,-3.493 11.641,-5.123 16.591,-7 a 30.284,30.284 0 0 1 1.841,4.646 c 1.199,3.787 1.992,7.692 0.419,11.508 -0.144,0.314 -0.303,0.625 -0.477,0.922 a 10.325,10.325 0 0 1 -6.048,4.694 l -34.525,11.73 a 50.567,50.567 0 0 1 -6.568,-6.486 c 2.752,-2.046 5.931,-4.243 8.686,-6.286 l -12.184,3.683 a 32.316,32.316 0 0 0 -21.273,-9.229 l -6.18,-37.109 a 8.016,8.016 0 0 1 0.845,-5.507 c 3.541,-6.028 15.599,-5.958 21.47,-5.164 l -1.095,25.494 z"
             id="path7" /></g></g></g></g></svg>
